<?xml version="1.0" standalone="no"?>
<!DOCTYPE svg PUBLIC "-//W3C//DTD SVG 20010904//EN"
 "http://www.w3.org/TR/2001/REC-SVG-20010904/DTD/svg10.dtd">
<svg version="1.0" xmlns="http://www.w3.org/2000/svg"
 width="133.000000pt" height="140.000000pt" viewBox="0 0 133.000000 140.000000"
 preserveAspectRatio="xMidYMid meet">

<g transform="translate(0.000000,140.000000) scale(0.100000,-0.100000)"
fill="#000000" stroke="none">
<path d="M1137 687 c-9 -21 -41 -64 -71 -96 -32 -33 -62 -76 -71 -100 -21 -61
-19 -63 11 -11 26 46 131 160 147 160 6 0 8 -36 5 -81 -4 -75 -4 -79 9 -54 18
34 18 128 0 180 l-14 40 -16 -38z"/>
<path d="M340 643 c0 -4 16 -40 36 -80 42 -85 147 -204 223 -252 49 -32 187
-84 205 -78 6 2 -12 16 -39 32 -123 72 -315 232 -315 262 0 9 18 13 63 13 110
0 224 -41 328 -116 55 -40 126 -74 154 -73 13 0 5 8 -25 24 -25 13 -72 46
-104 74 -82 70 -201 119 -320 131 -69 7 -105 17 -148 39 -32 16 -58 27 -58 24z"/>
<path d="M1115 422 c-16 -11 -37 -27 -45 -37 -13 -16 -11 -16 25 3 49 24 71
28 108 19 25 -7 39 -27 17 -27 -5 0 -28 -37 -51 -82 -60 -120 -70 -132 -134
-153 -30 -11 -65 -29 -77 -42 l-21 -22 39 19 c21 11 49 20 62 20 61 0 116 62
151 171 13 41 43 73 85 89 l28 10 -48 25 c-58 30 -98 31 -139 7z"/>
<path d="M780 164 c-8 -8 -54 -35 -104 -59 -62 -31 -83 -45 -66 -45 14 0 54
-9 88 -20 72 -23 124 -25 165 -7 25 11 20 12 -50 12 -43 1 -91 7 -108 14 l-30
13 30 15 c40 21 76 49 92 73 17 24 1 27 -17 4z"/>
</g>
</svg>
